<mxfile host="app.diagrams.net" modified="2024-03-16T14:26:03.647Z" agent="Mozilla/5.0 (Windows NT 10.0; Win64; x64) AppleWebKit/537.36 (KHTML, like Gecko) Chrome/120.0.0.0 Safari/537.36" etag="v6Wy3U9_QZTbTJCwByk8" version="24.0.7" type="google">
  <diagram name="第 1 页" id="BSA907zn4Jltd-eeoQN2">
    <mxGraphModel grid="1" page="1" gridSize="10" guides="1" tooltips="1" connect="1" arrows="1" fold="1" pageScale="1" pageWidth="827" pageHeight="1169" math="0" shadow="0">
      <root>
        <mxCell id="0" />
        <mxCell id="1" parent="0" />
        <mxCell id="OVhtjdc6IgPd9JC5Db8p-145" value="" style="edgeStyle=orthogonalEdgeStyle;rounded=0;orthogonalLoop=1;jettySize=auto;html=1;exitX=0.011;exitY=0.653;exitDx=0;exitDy=0;entryDx=0;entryDy=0;startArrow=oval;startFill=0;endArrow=oval;endFill=0;exitPerimeter=0;entryPerimeter=0;" edge="1" parent="1" source="OVhtjdc6IgPd9JC5Db8p-4" target="OVhtjdc6IgPd9JC5Db8p-144">
          <mxGeometry relative="1" as="geometry">
            <mxPoint x="601" y="148" as="sourcePoint" />
            <mxPoint x="599" y="373" as="targetPoint" />
          </mxGeometry>
        </mxCell>
        <mxCell id="OVhtjdc6IgPd9JC5Db8p-155" value="" style="edgeStyle=orthogonalEdgeStyle;rounded=0;orthogonalLoop=1;jettySize=auto;html=1;entryDx=0;entryDy=0;startArrow=oval;startFill=0;endArrow=oval;endFill=0;entryPerimeter=0;exitX=-0.003;exitY=0.545;exitDx=0;exitDy=0;exitPerimeter=0;" edge="1" parent="1" source="OVhtjdc6IgPd9JC5Db8p-4" target="OVhtjdc6IgPd9JC5Db8p-150">
          <mxGeometry relative="1" as="geometry">
            <mxPoint x="600" y="132" as="sourcePoint" />
            <mxPoint x="600" y="359" as="targetPoint" />
            <Array as="points" />
          </mxGeometry>
        </mxCell>
        <mxCell id="OVhtjdc6IgPd9JC5Db8p-152" value="" style="edgeStyle=orthogonalEdgeStyle;rounded=0;orthogonalLoop=1;jettySize=auto;html=1;entryDx=0;entryDy=0;startArrow=oval;startFill=0;endArrow=oval;endFill=0;entryPerimeter=0;exitDx=0;exitDy=0;exitPerimeter=0;entryX=0.149;entryY=0.049;" edge="1" parent="1" source="OVhtjdc6IgPd9JC5Db8p-150" target="OVhtjdc6IgPd9JC5Db8p-82">
          <mxGeometry relative="1" as="geometry">
            <mxPoint x="594" y="132" as="sourcePoint" />
            <mxPoint x="592.6800000000001" y="359.59000000000003" as="targetPoint" />
            <Array as="points">
              <mxPoint x="560" y="132" />
              <mxPoint x="560" y="360" />
            </Array>
          </mxGeometry>
        </mxCell>
        <mxCell id="OVhtjdc6IgPd9JC5Db8p-137" style="edgeStyle=orthogonalEdgeStyle;rounded=0;orthogonalLoop=1;jettySize=auto;html=1;exitX=0.001;exitY=0.546;exitDx=0;exitDy=0;entryX=-0.003;entryY=0.527;entryDx=0;entryDy=0;endArrow=oval;endFill=0;startArrow=oval;startFill=0;exitPerimeter=0;entryPerimeter=0;" edge="1" parent="1" source="OVhtjdc6IgPd9JC5Db8p-2" target="OVhtjdc6IgPd9JC5Db8p-6">
          <mxGeometry relative="1" as="geometry">
            <mxPoint x="173.43999999999983" y="132" as="sourcePoint" />
            <mxPoint x="171.76000000000022" y="353.77000000000004" as="targetPoint" />
            <Array as="points">
              <mxPoint x="140" y="132" />
              <mxPoint x="140" y="354" />
            </Array>
          </mxGeometry>
        </mxCell>
        <mxCell id="OVhtjdc6IgPd9JC5Db8p-133" style="edgeStyle=orthogonalEdgeStyle;rounded=0;orthogonalLoop=1;jettySize=auto;html=1;entryX=0.194;entryY=0.028;entryDx=0;entryDy=0;startArrow=oval;startFill=0;endArrow=oval;endFill=0;entryPerimeter=0;exitX=0.199;exitY=0.006;exitDx=0;exitDy=0;exitPerimeter=0;" edge="1" parent="1" source="OVhtjdc6IgPd9JC5Db8p-79" target="OVhtjdc6IgPd9JC5Db8p-80">
          <mxGeometry relative="1" as="geometry">
            <mxPoint x="380" y="140" as="sourcePoint" />
            <mxPoint x="392.8799999999999" y="359.29" as="targetPoint" />
            <Array as="points">
              <mxPoint x="360" y="132" />
              <mxPoint x="360" y="359" />
            </Array>
          </mxGeometry>
        </mxCell>
        <mxCell id="OVhtjdc6IgPd9JC5Db8p-129" style="edgeStyle=orthogonalEdgeStyle;rounded=0;orthogonalLoop=1;jettySize=auto;html=1;exitX=0;exitY=0.5;exitDx=0;exitDy=0;entryX=0.149;entryY=0.5;entryDx=0;entryDy=0;entryPerimeter=0;startArrow=oval;startFill=0;endArrow=oval;endFill=0;" edge="1" parent="1" source="OVhtjdc6IgPd9JC5Db8p-5" target="OVhtjdc6IgPd9JC5Db8p-121">
          <mxGeometry relative="1" as="geometry">
            <Array as="points">
              <mxPoint x="760" y="125" />
              <mxPoint x="760" y="360" />
            </Array>
          </mxGeometry>
        </mxCell>
        <mxCell id="OVhtjdc6IgPd9JC5Db8p-109" style="edgeStyle=orthogonalEdgeStyle;rounded=0;orthogonalLoop=1;jettySize=auto;html=1;entryX=0.011;entryY=0.113;entryDx=0;entryDy=0;entryPerimeter=0;startArrow=oval;startFill=0;endArrow=oval;endFill=0;" edge="1" parent="1" target="OVhtjdc6IgPd9JC5Db8p-10">
          <mxGeometry relative="1" as="geometry">
            <mxPoint x="10" y="320" as="sourcePoint" />
            <Array as="points">
              <mxPoint x="10" y="320" />
              <mxPoint x="10" y="452" />
            </Array>
          </mxGeometry>
        </mxCell>
        <mxCell id="OVhtjdc6IgPd9JC5Db8p-92" style="edgeStyle=orthogonalEdgeStyle;rounded=0;orthogonalLoop=1;jettySize=auto;html=1;exitX=0;exitY=0.75;exitDx=0;exitDy=0;entryX=0.721;entryY=-0.086;entryDx=0;entryDy=0;entryPerimeter=0;startArrow=oval;startFill=0;endArrow=oval;endFill=0;" edge="1" parent="1" source="OVhtjdc6IgPd9JC5Db8p-5" target="OVhtjdc6IgPd9JC5Db8p-91">
          <mxGeometry relative="1" as="geometry">
            <mxPoint x="804.97" y="357" as="sourcePoint" />
            <mxPoint x="134.97" y="564" as="targetPoint" />
            <Array as="points">
              <mxPoint x="750" y="163" />
              <mxPoint x="750" y="561" />
            </Array>
          </mxGeometry>
        </mxCell>
        <mxCell id="OVhtjdc6IgPd9JC5Db8p-67" style="edgeStyle=orthogonalEdgeStyle;rounded=0;orthogonalLoop=1;jettySize=auto;html=1;exitX=0;exitY=0.75;exitDx=0;exitDy=0;entryX=0.721;entryY=1.055;entryDx=0;entryDy=0;entryPerimeter=0;startArrow=oval;startFill=0;endArrow=oval;endFill=0;" edge="1" parent="1" source="OVhtjdc6IgPd9JC5Db8p-9" target="OVhtjdc6IgPd9JC5Db8p-76">
          <mxGeometry relative="1" as="geometry">
            <Array as="points">
              <mxPoint x="770" y="388" />
              <mxPoint x="770" y="579" />
              <mxPoint x="120" y="579" />
            </Array>
          </mxGeometry>
        </mxCell>
        <mxCell id="OVhtjdc6IgPd9JC5Db8p-66" value="" style="edgeStyle=orthogonalEdgeStyle;rounded=0;orthogonalLoop=1;jettySize=auto;html=1;entryX=0.733;entryY=0.467;entryDx=0;entryDy=0;entryPerimeter=0;startArrow=oval;startFill=0;endArrow=oval;endFill=0;" edge="1" parent="1" target="OVhtjdc6IgPd9JC5Db8p-75">
          <mxGeometry x="-0.001" relative="1" as="geometry">
            <mxPoint x="600" y="390" as="sourcePoint" />
            <Array as="points">
              <mxPoint x="600" y="390" />
              <mxPoint x="580" y="390" />
              <mxPoint x="580" y="540" />
            </Array>
            <mxPoint as="offset" />
          </mxGeometry>
        </mxCell>
        <mxCell id="OVhtjdc6IgPd9JC5Db8p-63" style="edgeStyle=orthogonalEdgeStyle;rounded=0;orthogonalLoop=1;jettySize=auto;html=1;exitX=0.011;exitY=0.647;exitDx=0;exitDy=0;entryX=0.011;entryY=0.64;entryDx=0;entryDy=0;endArrow=oval;endFill=0;startArrow=oval;startFill=0;exitPerimeter=0;entryPerimeter=0;" edge="1" parent="1" source="OVhtjdc6IgPd9JC5Db8p-5" target="OVhtjdc6IgPd9JC5Db8p-9">
          <mxGeometry relative="1" as="geometry" />
        </mxCell>
        <mxCell id="OVhtjdc6IgPd9JC5Db8p-59" style="edgeStyle=orthogonalEdgeStyle;rounded=0;orthogonalLoop=1;jettySize=auto;html=1;exitDx=0;exitDy=0;entryX=-0.011;entryY=0.653;entryDx=0;entryDy=0;startArrow=oval;startFill=0;endArrow=oval;endFill=0;exitPerimeter=0;entryPerimeter=0;" edge="1" parent="1" source="OVhtjdc6IgPd9JC5Db8p-144" target="OVhtjdc6IgPd9JC5Db8p-8">
          <mxGeometry relative="1" as="geometry">
            <Array as="points">
              <mxPoint x="580" y="373" />
            </Array>
          </mxGeometry>
        </mxCell>
        <mxCell id="OVhtjdc6IgPd9JC5Db8p-57" style="edgeStyle=orthogonalEdgeStyle;rounded=0;orthogonalLoop=1;jettySize=auto;html=1;exitDx=0;exitDy=0;entryX=0.011;entryY=0.647;entryDx=0;entryDy=0;startArrow=oval;startFill=0;endArrow=oval;endFill=0;exitPerimeter=0;entryPerimeter=0;" edge="1" parent="1" source="OVhtjdc6IgPd9JC5Db8p-142" target="OVhtjdc6IgPd9JC5Db8p-7">
          <mxGeometry relative="1" as="geometry">
            <Array as="points">
              <mxPoint x="379" y="372" />
            </Array>
          </mxGeometry>
        </mxCell>
        <mxCell id="OVhtjdc6IgPd9JC5Db8p-58" style="edgeStyle=orthogonalEdgeStyle;rounded=0;orthogonalLoop=1;jettySize=auto;html=1;exitX=-0.022;exitY=0.367;exitDx=0;exitDy=0;entryX=0.111;entryY=1.007;entryDx=0;entryDy=0;entryPerimeter=0;startArrow=oval;startFill=0;endArrow=oval;endFill=0;exitPerimeter=0;" edge="1" parent="1" source="OVhtjdc6IgPd9JC5Db8p-10" target="OVhtjdc6IgPd9JC5Db8p-1">
          <mxGeometry relative="1" as="geometry">
            <Array as="points">
              <mxPoint x="-10" y="490" />
            </Array>
          </mxGeometry>
        </mxCell>
        <mxCell id="OVhtjdc6IgPd9JC5Db8p-39" style="edgeStyle=orthogonalEdgeStyle;rounded=0;orthogonalLoop=1;jettySize=auto;html=1;exitX=1;exitY=0.4;exitDx=0;exitDy=0;dashed=1;dashPattern=1 1;strokeWidth=5;endArrow=none;endFill=0;exitPerimeter=0;" edge="1" parent="1" source="OVhtjdc6IgPd9JC5Db8p-1">
          <mxGeometry relative="1" as="geometry">
            <mxPoint x="840" y="230" as="targetPoint" />
            <mxPoint x="100" y="230" as="sourcePoint" />
          </mxGeometry>
        </mxCell>
        <mxCell id="OVhtjdc6IgPd9JC5Db8p-108" style="edgeStyle=orthogonalEdgeStyle;rounded=0;orthogonalLoop=1;jettySize=auto;html=1;exitX=0.25;exitY=1;exitDx=0;exitDy=0;entryX=0;entryY=0.25;entryDx=0;entryDy=0;endArrow=oval;endFill=0;startArrow=oval;startFill=0;" edge="1" parent="1" source="OVhtjdc6IgPd9JC5Db8p-1" target="OVhtjdc6IgPd9JC5Db8p-10">
          <mxGeometry relative="1" as="geometry" />
        </mxCell>
        <mxCell id="OVhtjdc6IgPd9JC5Db8p-125" style="edgeStyle=orthogonalEdgeStyle;rounded=0;orthogonalLoop=1;jettySize=auto;html=1;endArrow=oval;endFill=1;startArrow=oval;startFill=1;exitDx=0;exitDy=0;exitPerimeter=0;" edge="1" parent="1" source="OVhtjdc6IgPd9JC5Db8p-140">
          <mxGeometry relative="1" as="geometry">
            <mxPoint x="70" y="240" as="sourcePoint" />
            <mxPoint x="770" y="240" as="targetPoint" />
            <Array as="points">
              <mxPoint x="110" y="240" />
            </Array>
          </mxGeometry>
        </mxCell>
        <mxCell id="OVhtjdc6IgPd9JC5Db8p-130" style="edgeStyle=orthogonalEdgeStyle;rounded=0;orthogonalLoop=1;jettySize=auto;html=1;endArrow=oval;endFill=1;startArrow=oval;startFill=1;exitDx=0;exitDy=0;exitPerimeter=0;" edge="1" parent="1" source="OVhtjdc6IgPd9JC5Db8p-150">
          <mxGeometry relative="1" as="geometry">
            <mxPoint x="760" y="250" as="targetPoint" />
            <Array as="points" />
          </mxGeometry>
        </mxCell>
        <mxCell id="OVhtjdc6IgPd9JC5Db8p-1" value="ARM_CPU" style="rounded=0;whiteSpace=wrap;html=1;" vertex="1" parent="1">
          <mxGeometry x="-20" y="170" width="90" height="150" as="geometry" />
        </mxCell>
        <mxCell id="OVhtjdc6IgPd9JC5Db8p-32" style="edgeStyle=orthogonalEdgeStyle;rounded=0;orthogonalLoop=1;jettySize=auto;html=1;strokeWidth=6;dashed=1;dashPattern=1 1;endArrow=none;endFill=0;" edge="1" parent="1" source="OVhtjdc6IgPd9JC5Db8p-2">
          <mxGeometry relative="1" as="geometry">
            <mxPoint x="225" y="10" as="targetPoint" />
          </mxGeometry>
        </mxCell>
        <mxCell id="OVhtjdc6IgPd9JC5Db8p-53" style="edgeStyle=orthogonalEdgeStyle;rounded=0;orthogonalLoop=1;jettySize=auto;html=1;exitX=0;exitY=0.75;exitDx=0;exitDy=0;entryX=1.011;entryY=0.093;entryDx=0;entryDy=0;endArrow=oval;endFill=0;startArrow=oval;startFill=0;entryPerimeter=0;" edge="1" parent="1" source="OVhtjdc6IgPd9JC5Db8p-2" target="OVhtjdc6IgPd9JC5Db8p-10">
          <mxGeometry relative="1" as="geometry" />
        </mxCell>
        <mxCell id="OVhtjdc6IgPd9JC5Db8p-54" style="edgeStyle=orthogonalEdgeStyle;rounded=0;orthogonalLoop=1;jettySize=auto;html=1;exitX=0;exitY=0.653;exitDx=0;exitDy=0;entryX=0.011;entryY=0.647;entryDx=0;entryDy=0;endArrow=oval;endFill=0;startArrow=oval;startFill=0;exitPerimeter=0;entryPerimeter=0;" edge="1" parent="1" source="OVhtjdc6IgPd9JC5Db8p-2" target="OVhtjdc6IgPd9JC5Db8p-6">
          <mxGeometry relative="1" as="geometry" />
        </mxCell>
        <mxCell id="OVhtjdc6IgPd9JC5Db8p-2" value="Memory" style="rounded=0;whiteSpace=wrap;html=1;" vertex="1" parent="1">
          <mxGeometry x="180" y="50" width="90" height="150" as="geometry" />
        </mxCell>
        <mxCell id="OVhtjdc6IgPd9JC5Db8p-64" style="edgeStyle=orthogonalEdgeStyle;rounded=0;orthogonalLoop=1;jettySize=auto;html=1;exitX=0;exitY=0.75;exitDx=0;exitDy=0;startArrow=oval;startFill=0;endArrow=oval;endFill=0;entryX=0.752;entryY=1.057;entryDx=0;entryDy=0;entryPerimeter=0;" edge="1" parent="1" source="OVhtjdc6IgPd9JC5Db8p-4" target="OVhtjdc6IgPd9JC5Db8p-90">
          <mxGeometry relative="1" as="geometry">
            <mxPoint x="120" y="510" as="targetPoint" />
            <Array as="points">
              <mxPoint x="550" y="163" />
              <mxPoint x="550" y="526" />
              <mxPoint x="121" y="526" />
            </Array>
          </mxGeometry>
        </mxCell>
        <mxCell id="OVhtjdc6IgPd9JC5Db8p-4" value="Memory" style="rounded=0;whiteSpace=wrap;html=1;" vertex="1" parent="1">
          <mxGeometry x="600" y="50" width="90" height="150" as="geometry" />
        </mxCell>
        <mxCell id="OVhtjdc6IgPd9JC5Db8p-5" value="Memory" style="rounded=0;whiteSpace=wrap;html=1;" vertex="1" parent="1">
          <mxGeometry x="790" y="50" width="90" height="150" as="geometry" />
        </mxCell>
        <mxCell id="OVhtjdc6IgPd9JC5Db8p-55" style="edgeStyle=orthogonalEdgeStyle;rounded=0;orthogonalLoop=1;jettySize=auto;html=1;entryX=1.011;entryY=0.213;entryDx=0;entryDy=0;startArrow=oval;startFill=0;endArrow=oval;endFill=0;entryPerimeter=0;" edge="1" parent="1" target="OVhtjdc6IgPd9JC5Db8p-10">
          <mxGeometry relative="1" as="geometry">
            <mxPoint x="180" y="390" as="sourcePoint" />
            <Array as="points">
              <mxPoint x="180" y="390" />
              <mxPoint x="160" y="390" />
              <mxPoint x="160" y="467" />
            </Array>
          </mxGeometry>
        </mxCell>
        <mxCell id="OVhtjdc6IgPd9JC5Db8p-6" value="Memory" style="rounded=0;whiteSpace=wrap;html=1;" vertex="1" parent="1">
          <mxGeometry x="180" y="275" width="90" height="150" as="geometry" />
        </mxCell>
        <mxCell id="OVhtjdc6IgPd9JC5Db8p-65" style="edgeStyle=orthogonalEdgeStyle;rounded=0;orthogonalLoop=1;jettySize=auto;html=1;startArrow=oval;startFill=0;endArrow=oval;endFill=0;exitX=-0.002;exitY=0.764;exitDx=0;exitDy=0;exitPerimeter=0;" edge="1" parent="1" source="OVhtjdc6IgPd9JC5Db8p-7">
          <mxGeometry relative="1" as="geometry">
            <mxPoint x="392" y="390" as="sourcePoint" />
            <mxPoint x="120" y="510" as="targetPoint" />
            <Array as="points">
              <mxPoint x="329" y="390" />
              <mxPoint x="329" y="510" />
            </Array>
          </mxGeometry>
        </mxCell>
        <mxCell id="OVhtjdc6IgPd9JC5Db8p-7" value="Memory" style="rounded=0;whiteSpace=wrap;html=1;" vertex="1" parent="1">
          <mxGeometry x="400" y="275" width="90" height="150" as="geometry" />
        </mxCell>
        <mxCell id="OVhtjdc6IgPd9JC5Db8p-8" value="Memory" style="rounded=0;whiteSpace=wrap;html=1;" vertex="1" parent="1">
          <mxGeometry x="600" y="275" width="90" height="150" as="geometry" />
        </mxCell>
        <mxCell id="OVhtjdc6IgPd9JC5Db8p-9" value="Memory" style="rounded=0;whiteSpace=wrap;html=1;" vertex="1" parent="1">
          <mxGeometry x="790" y="275" width="90" height="150" as="geometry" />
        </mxCell>
        <mxCell id="OVhtjdc6IgPd9JC5Db8p-26" value="D0-D7" style="text;html=1;align=center;verticalAlign=middle;resizable=0;points=[];autosize=1;strokeColor=none;fillColor=none;" vertex="1" parent="1">
          <mxGeometry x="195" y="50" width="60" height="30" as="geometry" />
        </mxCell>
        <mxCell id="OVhtjdc6IgPd9JC5Db8p-29" style="edgeStyle=orthogonalEdgeStyle;rounded=0;orthogonalLoop=1;jettySize=auto;html=1;exitX=0.5;exitY=0;exitDx=0;exitDy=0;entryX=0.5;entryY=1;entryDx=0;entryDy=0;strokeWidth=6;dashed=1;dashPattern=1 1;endArrow=none;endFill=0;" edge="1" parent="1" source="OVhtjdc6IgPd9JC5Db8p-1" target="OVhtjdc6IgPd9JC5Db8p-6">
          <mxGeometry relative="1" as="geometry">
            <Array as="points">
              <mxPoint x="25" y="10" />
              <mxPoint x="940" y="10" />
              <mxPoint x="940" y="590" />
              <mxPoint x="225" y="590" />
            </Array>
          </mxGeometry>
        </mxCell>
        <mxCell id="OVhtjdc6IgPd9JC5Db8p-33" style="edgeStyle=orthogonalEdgeStyle;rounded=0;orthogonalLoop=1;jettySize=auto;html=1;strokeWidth=6;dashed=1;dashPattern=1 1;endArrow=none;endFill=0;" edge="1" parent="1">
          <mxGeometry relative="1" as="geometry">
            <mxPoint x="444.5" y="10" as="targetPoint" />
            <mxPoint x="444.5" y="50" as="sourcePoint" />
          </mxGeometry>
        </mxCell>
        <mxCell id="OVhtjdc6IgPd9JC5Db8p-34" style="edgeStyle=orthogonalEdgeStyle;rounded=0;orthogonalLoop=1;jettySize=auto;html=1;strokeWidth=6;dashed=1;dashPattern=1 1;endArrow=none;endFill=0;" edge="1" parent="1">
          <mxGeometry relative="1" as="geometry">
            <mxPoint x="644.5" y="10" as="targetPoint" />
            <mxPoint x="644.5" y="50" as="sourcePoint" />
          </mxGeometry>
        </mxCell>
        <mxCell id="OVhtjdc6IgPd9JC5Db8p-35" style="edgeStyle=orthogonalEdgeStyle;rounded=0;orthogonalLoop=1;jettySize=auto;html=1;strokeWidth=6;dashed=1;dashPattern=1 1;endArrow=none;endFill=0;" edge="1" parent="1">
          <mxGeometry relative="1" as="geometry">
            <mxPoint x="834.5" y="10" as="targetPoint" />
            <mxPoint x="834.5" y="50" as="sourcePoint" />
          </mxGeometry>
        </mxCell>
        <mxCell id="OVhtjdc6IgPd9JC5Db8p-36" style="edgeStyle=orthogonalEdgeStyle;rounded=0;orthogonalLoop=1;jettySize=auto;html=1;strokeWidth=6;dashed=1;dashPattern=1 1;endArrow=none;endFill=0;" edge="1" parent="1">
          <mxGeometry relative="1" as="geometry">
            <mxPoint x="834.5" y="410" as="targetPoint" />
            <mxPoint x="835" y="590" as="sourcePoint" />
          </mxGeometry>
        </mxCell>
        <mxCell id="OVhtjdc6IgPd9JC5Db8p-37" style="edgeStyle=orthogonalEdgeStyle;rounded=0;orthogonalLoop=1;jettySize=auto;html=1;strokeWidth=6;dashed=1;dashPattern=1 1;endArrow=none;endFill=0;" edge="1" parent="1">
          <mxGeometry relative="1" as="geometry">
            <mxPoint x="644.5" y="410" as="targetPoint" />
            <mxPoint x="645" y="590" as="sourcePoint" />
          </mxGeometry>
        </mxCell>
        <mxCell id="OVhtjdc6IgPd9JC5Db8p-38" style="edgeStyle=orthogonalEdgeStyle;rounded=0;orthogonalLoop=1;jettySize=auto;html=1;strokeWidth=6;dashed=1;dashPattern=1 1;endArrow=none;endFill=0;" edge="1" parent="1">
          <mxGeometry relative="1" as="geometry">
            <mxPoint x="444.5" y="410" as="targetPoint" />
            <mxPoint x="445" y="590" as="sourcePoint" />
          </mxGeometry>
        </mxCell>
        <mxCell id="OVhtjdc6IgPd9JC5Db8p-41" style="edgeStyle=orthogonalEdgeStyle;rounded=0;orthogonalLoop=1;jettySize=auto;html=1;exitX=0.5;exitY=1;exitDx=0;exitDy=0;entryX=0.5;entryY=0;entryDx=0;entryDy=0;startArrow=block;startFill=1;strokeWidth=4;dashed=1;dashPattern=1 1;endArrow=block;endFill=1;" edge="1" parent="1" target="OVhtjdc6IgPd9JC5Db8p-7">
          <mxGeometry relative="1" as="geometry">
            <mxPoint x="444.5" y="200" as="sourcePoint" />
            <mxPoint x="444.5" y="270" as="targetPoint" />
          </mxGeometry>
        </mxCell>
        <mxCell id="OVhtjdc6IgPd9JC5Db8p-42" style="edgeStyle=orthogonalEdgeStyle;rounded=0;orthogonalLoop=1;jettySize=auto;html=1;exitX=0.5;exitY=1;exitDx=0;exitDy=0;entryX=0.5;entryY=-0.1;entryDx=0;entryDy=0;startArrow=block;startFill=1;strokeWidth=4;dashed=1;dashPattern=1 1;endArrow=block;endFill=1;entryPerimeter=0;" edge="1" parent="1" target="OVhtjdc6IgPd9JC5Db8p-51">
          <mxGeometry relative="1" as="geometry">
            <mxPoint x="224.5" y="200" as="sourcePoint" />
            <mxPoint x="225" y="260" as="targetPoint" />
          </mxGeometry>
        </mxCell>
        <mxCell id="OVhtjdc6IgPd9JC5Db8p-43" style="edgeStyle=orthogonalEdgeStyle;rounded=0;orthogonalLoop=1;jettySize=auto;html=1;exitX=0.5;exitY=1;exitDx=0;exitDy=0;entryX=0.5;entryY=-0.033;entryDx=0;entryDy=0;startArrow=block;startFill=1;strokeWidth=4;dashed=1;dashPattern=1 1;endArrow=block;endFill=1;entryPerimeter=0;" edge="1" parent="1" target="OVhtjdc6IgPd9JC5Db8p-49">
          <mxGeometry relative="1" as="geometry">
            <mxPoint x="644.5" y="200" as="sourcePoint" />
            <mxPoint x="645" y="260" as="targetPoint" />
          </mxGeometry>
        </mxCell>
        <mxCell id="OVhtjdc6IgPd9JC5Db8p-44" style="edgeStyle=orthogonalEdgeStyle;rounded=0;orthogonalLoop=1;jettySize=auto;html=1;exitX=0.5;exitY=1;exitDx=0;exitDy=0;entryX=0.5;entryY=-0.1;entryDx=0;entryDy=0;startArrow=block;startFill=1;strokeWidth=4;dashed=1;dashPattern=1 1;endArrow=block;endFill=1;entryPerimeter=0;" edge="1" parent="1" target="OVhtjdc6IgPd9JC5Db8p-48">
          <mxGeometry relative="1" as="geometry">
            <mxPoint x="834.5" y="200" as="sourcePoint" />
            <mxPoint x="835" y="260" as="targetPoint" />
          </mxGeometry>
        </mxCell>
        <mxCell id="OVhtjdc6IgPd9JC5Db8p-45" value="D0-D7" style="text;html=1;align=center;verticalAlign=middle;resizable=0;points=[];autosize=1;strokeColor=none;fillColor=none;" vertex="1" parent="1">
          <mxGeometry x="415" y="50" width="60" height="30" as="geometry" />
        </mxCell>
        <mxCell id="OVhtjdc6IgPd9JC5Db8p-46" value="D0-D7" style="text;html=1;align=center;verticalAlign=middle;resizable=0;points=[];autosize=1;strokeColor=none;fillColor=none;" vertex="1" parent="1">
          <mxGeometry x="615" y="50" width="60" height="30" as="geometry" />
        </mxCell>
        <mxCell id="OVhtjdc6IgPd9JC5Db8p-47" value="D0-D7" style="text;html=1;align=center;verticalAlign=middle;resizable=0;points=[];autosize=1;strokeColor=none;fillColor=none;" vertex="1" parent="1">
          <mxGeometry x="805" y="50" width="60" height="30" as="geometry" />
        </mxCell>
        <mxCell id="OVhtjdc6IgPd9JC5Db8p-48" value="A0-A28" style="text;html=1;align=center;verticalAlign=middle;resizable=0;points=[];autosize=1;strokeColor=none;fillColor=none;" vertex="1" parent="1">
          <mxGeometry x="805" y="275" width="60" height="30" as="geometry" />
        </mxCell>
        <mxCell id="OVhtjdc6IgPd9JC5Db8p-49" value="A0-A28" style="text;html=1;align=center;verticalAlign=middle;resizable=0;points=[];autosize=1;strokeColor=none;fillColor=none;" vertex="1" parent="1">
          <mxGeometry x="615" y="275" width="60" height="30" as="geometry" />
        </mxCell>
        <mxCell id="OVhtjdc6IgPd9JC5Db8p-50" value="A0-A28" style="text;html=1;align=center;verticalAlign=middle;resizable=0;points=[];autosize=1;strokeColor=none;fillColor=none;" vertex="1" parent="1">
          <mxGeometry x="415" y="275" width="60" height="30" as="geometry" />
        </mxCell>
        <mxCell id="OVhtjdc6IgPd9JC5Db8p-51" value="A0-A28" style="text;html=1;align=center;verticalAlign=middle;resizable=0;points=[];autosize=1;strokeColor=none;fillColor=none;" vertex="1" parent="1">
          <mxGeometry x="195" y="275" width="60" height="30" as="geometry" />
        </mxCell>
        <mxCell id="OVhtjdc6IgPd9JC5Db8p-52" value="D0-D7" style="text;html=1;align=center;verticalAlign=middle;resizable=0;points=[];autosize=1;strokeColor=none;fillColor=none;" vertex="1" parent="1">
          <mxGeometry x="-5" y="170" width="60" height="30" as="geometry" />
        </mxCell>
        <mxCell id="OVhtjdc6IgPd9JC5Db8p-56" style="edgeStyle=orthogonalEdgeStyle;rounded=0;orthogonalLoop=1;jettySize=auto;html=1;exitX=0;exitY=0.75;exitDx=0;exitDy=0;startArrow=oval;startFill=0;endArrow=oval;endFill=0;" edge="1" parent="1" source="OVhtjdc6IgPd9JC5Db8p-3">
          <mxGeometry relative="1" as="geometry">
            <mxPoint x="121" y="492" as="targetPoint" />
            <Array as="points">
              <mxPoint x="310" y="163" />
              <mxPoint x="310" y="492" />
            </Array>
          </mxGeometry>
        </mxCell>
        <mxCell id="OVhtjdc6IgPd9JC5Db8p-10" value="3 to 8&lt;div&gt;Decoder&lt;/div&gt;" style="rounded=0;whiteSpace=wrap;html=1;" vertex="1" parent="1">
          <mxGeometry x="30" y="435" width="90" height="150" as="geometry" />
        </mxCell>
        <mxCell id="OVhtjdc6IgPd9JC5Db8p-3" value="Memory" style="rounded=0;whiteSpace=wrap;html=1;" vertex="1" parent="1">
          <mxGeometry x="400" y="50" width="90" height="150" as="geometry" />
        </mxCell>
        <mxCell id="OVhtjdc6IgPd9JC5Db8p-69" value="1" style="text;html=1;align=center;verticalAlign=middle;resizable=0;points=[];autosize=1;strokeColor=none;fillColor=none;" vertex="1" parent="1">
          <mxGeometry x="98" y="453" width="30" height="30" as="geometry" />
        </mxCell>
        <mxCell id="OVhtjdc6IgPd9JC5Db8p-74" value="4" style="text;html=1;align=center;verticalAlign=middle;resizable=0;points=[];autosize=1;strokeColor=none;fillColor=none;" vertex="1" parent="1">
          <mxGeometry x="98" y="510" width="30" height="30" as="geometry" />
        </mxCell>
        <mxCell id="OVhtjdc6IgPd9JC5Db8p-75" value="5" style="text;html=1;align=center;verticalAlign=middle;resizable=0;points=[];autosize=1;strokeColor=none;fillColor=none;" vertex="1" parent="1">
          <mxGeometry x="98" y="526" width="30" height="30" as="geometry" />
        </mxCell>
        <mxCell id="OVhtjdc6IgPd9JC5Db8p-76" value="6" style="text;html=1;align=center;verticalAlign=middle;resizable=0;points=[];autosize=1;strokeColor=none;fillColor=none;" vertex="1" parent="1">
          <mxGeometry x="98" y="547" width="30" height="30" as="geometry" />
        </mxCell>
        <mxCell id="OVhtjdc6IgPd9JC5Db8p-78" value="OE" style="text;html=1;align=center;verticalAlign=middle;resizable=0;points=[];autosize=1;strokeColor=none;fillColor=none;" vertex="1" parent="1">
          <mxGeometry x="173" y="133" width="40" height="30" as="geometry" />
        </mxCell>
        <mxCell id="OVhtjdc6IgPd9JC5Db8p-79" value="OE" style="text;html=1;align=center;verticalAlign=middle;resizable=0;points=[];autosize=1;strokeColor=none;fillColor=none;" vertex="1" parent="1">
          <mxGeometry x="392" y="132" width="40" height="30" as="geometry" />
        </mxCell>
        <mxCell id="OVhtjdc6IgPd9JC5Db8p-80" value="OE" style="text;html=1;align=center;verticalAlign=middle;resizable=0;points=[];autosize=1;strokeColor=none;fillColor=none;" vertex="1" parent="1">
          <mxGeometry x="392" y="358" width="40" height="30" as="geometry" />
        </mxCell>
        <mxCell id="OVhtjdc6IgPd9JC5Db8p-81" value="OE" style="text;html=1;align=center;verticalAlign=middle;resizable=0;points=[];autosize=1;strokeColor=none;fillColor=none;" vertex="1" parent="1">
          <mxGeometry x="594" y="134" width="40" height="30" as="geometry" />
        </mxCell>
        <mxCell id="OVhtjdc6IgPd9JC5Db8p-82" value="OE" style="text;html=1;align=center;verticalAlign=middle;resizable=0;points=[];autosize=1;strokeColor=none;fillColor=none;" vertex="1" parent="1">
          <mxGeometry x="594" y="358" width="40" height="30" as="geometry" />
        </mxCell>
        <mxCell id="OVhtjdc6IgPd9JC5Db8p-83" value="OE" style="text;html=1;align=center;verticalAlign=middle;resizable=0;points=[];autosize=1;strokeColor=none;fillColor=none;" vertex="1" parent="1">
          <mxGeometry x="784" y="358" width="40" height="30" as="geometry" />
        </mxCell>
        <mxCell id="OVhtjdc6IgPd9JC5Db8p-84" value="OE" style="text;html=1;align=center;verticalAlign=middle;resizable=0;points=[];autosize=1;strokeColor=none;fillColor=none;" vertex="1" parent="1">
          <mxGeometry x="784" y="134" width="40" height="30" as="geometry" />
        </mxCell>
        <mxCell id="OVhtjdc6IgPd9JC5Db8p-87" value="CS&amp;nbsp;" style="text;html=1;align=center;verticalAlign=middle;resizable=0;points=[];autosize=1;strokeColor=none;fillColor=none;" vertex="1" parent="1">
          <mxGeometry x="784" y="150" width="40" height="30" as="geometry" />
        </mxCell>
        <mxCell id="OVhtjdc6IgPd9JC5Db8p-88" value="0" style="text;html=1;align=center;verticalAlign=middle;resizable=0;points=[];autosize=1;strokeColor=none;fillColor=none;" vertex="1" parent="1">
          <mxGeometry x="99" y="435" width="30" height="30" as="geometry" />
        </mxCell>
        <mxCell id="OVhtjdc6IgPd9JC5Db8p-89" value="2" style="text;html=1;align=center;verticalAlign=middle;resizable=0;points=[];autosize=1;strokeColor=none;fillColor=none;" vertex="1" parent="1">
          <mxGeometry x="98" y="477" width="30" height="30" as="geometry" />
        </mxCell>
        <mxCell id="OVhtjdc6IgPd9JC5Db8p-90" value="3" style="text;html=1;align=center;verticalAlign=middle;resizable=0;points=[];autosize=1;strokeColor=none;fillColor=none;" vertex="1" parent="1">
          <mxGeometry x="98" y="494" width="30" height="30" as="geometry" />
        </mxCell>
        <mxCell id="OVhtjdc6IgPd9JC5Db8p-91" value="7" style="text;html=1;align=center;verticalAlign=middle;resizable=0;points=[];autosize=1;strokeColor=none;fillColor=none;" vertex="1" parent="1">
          <mxGeometry x="98" y="564" width="30" height="30" as="geometry" />
        </mxCell>
        <mxCell id="OVhtjdc6IgPd9JC5Db8p-93" value="CS" style="text;html=1;align=center;verticalAlign=middle;resizable=0;points=[];autosize=1;strokeColor=none;fillColor=none;" vertex="1" parent="1">
          <mxGeometry x="784" y="375" width="40" height="30" as="geometry" />
        </mxCell>
        <mxCell id="OVhtjdc6IgPd9JC5Db8p-94" value="CS" style="text;html=1;align=center;verticalAlign=middle;resizable=0;points=[];autosize=1;strokeColor=none;fillColor=none;" vertex="1" parent="1">
          <mxGeometry x="594" y="375" width="40" height="30" as="geometry" />
        </mxCell>
        <mxCell id="OVhtjdc6IgPd9JC5Db8p-95" value="CE" style="text;html=1;align=center;verticalAlign=middle;resizable=0;points=[];autosize=1;strokeColor=none;fillColor=none;" vertex="1" parent="1">
          <mxGeometry x="594" y="147" width="40" height="30" as="geometry" />
        </mxCell>
        <mxCell id="OVhtjdc6IgPd9JC5Db8p-96" value="CS&amp;nbsp;" style="text;html=1;align=center;verticalAlign=middle;resizable=0;points=[];autosize=1;strokeColor=none;fillColor=none;" vertex="1" parent="1">
          <mxGeometry x="392" y="147" width="40" height="30" as="geometry" />
        </mxCell>
        <mxCell id="OVhtjdc6IgPd9JC5Db8p-98" value="CS" style="text;html=1;align=center;verticalAlign=middle;resizable=0;points=[];autosize=1;strokeColor=none;fillColor=none;" vertex="1" parent="1">
          <mxGeometry x="173" y="147" width="40" height="30" as="geometry" />
        </mxCell>
        <mxCell id="OVhtjdc6IgPd9JC5Db8p-99" value="CS" style="text;html=1;align=center;verticalAlign=middle;resizable=0;points=[];autosize=1;strokeColor=none;fillColor=none;" vertex="1" parent="1">
          <mxGeometry x="173" y="375" width="40" height="30" as="geometry" />
        </mxCell>
        <mxCell id="OVhtjdc6IgPd9JC5Db8p-100" value="OE" style="text;html=1;align=center;verticalAlign=middle;resizable=0;points=[];autosize=1;strokeColor=none;fillColor=none;" vertex="1" parent="1">
          <mxGeometry x="173" y="358" width="40" height="30" as="geometry" />
        </mxCell>
        <mxCell id="OVhtjdc6IgPd9JC5Db8p-101" value="D0-D7" style="text;html=1;align=center;verticalAlign=middle;resizable=0;points=[];autosize=1;strokeColor=none;fillColor=none;" vertex="1" parent="1">
          <mxGeometry x="195" y="395" width="60" height="30" as="geometry" />
        </mxCell>
        <mxCell id="OVhtjdc6IgPd9JC5Db8p-102" value="D0-D7" style="text;html=1;align=center;verticalAlign=middle;resizable=0;points=[];autosize=1;strokeColor=none;fillColor=none;" vertex="1" parent="1">
          <mxGeometry x="415" y="395" width="60" height="30" as="geometry" />
        </mxCell>
        <mxCell id="OVhtjdc6IgPd9JC5Db8p-103" value="D0-D7" style="text;html=1;align=center;verticalAlign=middle;resizable=0;points=[];autosize=1;strokeColor=none;fillColor=none;" vertex="1" parent="1">
          <mxGeometry x="415" y="50" width="60" height="30" as="geometry" />
        </mxCell>
        <mxCell id="OVhtjdc6IgPd9JC5Db8p-106" value="D0-D7" style="text;html=1;align=center;verticalAlign=middle;resizable=0;points=[];autosize=1;strokeColor=none;fillColor=none;" vertex="1" parent="1">
          <mxGeometry x="615" y="395" width="60" height="30" as="geometry" />
        </mxCell>
        <mxCell id="OVhtjdc6IgPd9JC5Db8p-107" value="D0-D7" style="text;html=1;align=center;verticalAlign=middle;resizable=0;points=[];autosize=1;strokeColor=none;fillColor=none;" vertex="1" parent="1">
          <mxGeometry x="805" y="395" width="60" height="30" as="geometry" />
        </mxCell>
        <mxCell id="OVhtjdc6IgPd9JC5Db8p-111" value="A0-A28" style="text;html=1;align=center;verticalAlign=middle;resizable=0;points=[];autosize=1;strokeColor=none;fillColor=none;" vertex="1" parent="1">
          <mxGeometry x="16" y="216" width="60" height="30" as="geometry" />
        </mxCell>
        <mxCell id="OVhtjdc6IgPd9JC5Db8p-112" value="A29" style="text;html=1;align=center;verticalAlign=middle;resizable=0;points=[];autosize=1;strokeColor=none;fillColor=none;" vertex="1" parent="1">
          <mxGeometry x="-45" y="313" width="40" height="30" as="geometry" />
        </mxCell>
        <mxCell id="OVhtjdc6IgPd9JC5Db8p-113" value="A30" style="text;html=1;align=center;verticalAlign=middle;resizable=0;points=[];autosize=1;strokeColor=none;fillColor=none;" vertex="1" parent="1">
          <mxGeometry x="-19" y="296" width="40" height="30" as="geometry" />
        </mxCell>
        <mxCell id="OVhtjdc6IgPd9JC5Db8p-114" value="A31" style="text;html=1;align=center;verticalAlign=middle;resizable=0;points=[];autosize=1;strokeColor=none;fillColor=none;" vertex="1" parent="1">
          <mxGeometry x="4" y="313" width="40" height="30" as="geometry" />
        </mxCell>
        <mxCell id="OVhtjdc6IgPd9JC5Db8p-115" value="OE" style="text;html=1;align=center;verticalAlign=middle;resizable=0;points=[];autosize=1;strokeColor=none;fillColor=none;" vertex="1" parent="1">
          <mxGeometry x="36" y="263" width="40" height="30" as="geometry" />
        </mxCell>
        <mxCell id="OVhtjdc6IgPd9JC5Db8p-116" value="WE" style="text;html=1;align=center;verticalAlign=middle;resizable=0;points=[];autosize=1;strokeColor=none;fillColor=none;" vertex="1" parent="1">
          <mxGeometry x="36" y="283" width="40" height="30" as="geometry" />
        </mxCell>
        <mxCell id="OVhtjdc6IgPd9JC5Db8p-121" value="WE" style="text;html=1;align=center;verticalAlign=middle;resizable=0;points=[];autosize=1;strokeColor=none;fillColor=none;" vertex="1" parent="1">
          <mxGeometry x="784" y="345" width="40" height="30" as="geometry" />
        </mxCell>
        <mxCell id="OVhtjdc6IgPd9JC5Db8p-132" value="CS" style="text;html=1;align=center;verticalAlign=middle;resizable=0;points=[];autosize=1;strokeColor=none;fillColor=none;" vertex="1" parent="1">
          <mxGeometry x="392" y="375" width="40" height="30" as="geometry" />
        </mxCell>
        <mxCell id="OVhtjdc6IgPd9JC5Db8p-134" value="WE" style="text;html=1;align=center;verticalAlign=middle;resizable=0;points=[];autosize=1;strokeColor=none;fillColor=none;" vertex="1" parent="1">
          <mxGeometry x="393" y="117" width="40" height="30" as="geometry" />
        </mxCell>
        <mxCell id="OVhtjdc6IgPd9JC5Db8p-135" value="WE" style="text;html=1;align=center;verticalAlign=middle;resizable=0;points=[];autosize=1;strokeColor=none;fillColor=none;" vertex="1" parent="1">
          <mxGeometry x="392" y="343" width="40" height="30" as="geometry" />
        </mxCell>
        <mxCell id="OVhtjdc6IgPd9JC5Db8p-138" value="WE" style="text;html=1;align=center;verticalAlign=middle;resizable=0;points=[];autosize=1;strokeColor=none;fillColor=none;" vertex="1" parent="1">
          <mxGeometry x="173" y="343" width="40" height="30" as="geometry" />
        </mxCell>
        <mxCell id="OVhtjdc6IgPd9JC5Db8p-139" value="WE" style="text;html=1;align=center;verticalAlign=middle;resizable=0;points=[];autosize=1;strokeColor=none;fillColor=none;" vertex="1" parent="1">
          <mxGeometry x="173" y="117" width="40" height="30" as="geometry" />
        </mxCell>
        <mxCell id="OVhtjdc6IgPd9JC5Db8p-141" value="" style="edgeStyle=orthogonalEdgeStyle;rounded=0;orthogonalLoop=1;jettySize=auto;html=1;endArrow=oval;endFill=1;startArrow=oval;startFill=1;exitX=1.005;exitY=0.719;exitDx=0;exitDy=0;exitPerimeter=0;" edge="1" parent="1" source="OVhtjdc6IgPd9JC5Db8p-1" target="OVhtjdc6IgPd9JC5Db8p-140">
          <mxGeometry relative="1" as="geometry">
            <mxPoint x="70" y="278" as="sourcePoint" />
            <mxPoint x="770" y="240" as="targetPoint" />
            <Array as="points">
              <mxPoint x="110" y="278" />
            </Array>
          </mxGeometry>
        </mxCell>
        <mxCell id="OVhtjdc6IgPd9JC5Db8p-140" value="" style="shape=waypoint;sketch=0;size=6;pointerEvents=1;points=[];fillColor=none;resizable=0;rotatable=0;perimeter=centerPerimeter;snapToPoint=1;" vertex="1" parent="1">
          <mxGeometry x="150" y="230" width="20" height="20" as="geometry" />
        </mxCell>
        <mxCell id="OVhtjdc6IgPd9JC5Db8p-143" value="" style="edgeStyle=orthogonalEdgeStyle;rounded=0;orthogonalLoop=1;jettySize=auto;html=1;exitX=0;exitY=0.64;exitDx=0;exitDy=0;entryDx=0;entryDy=0;startArrow=oval;startFill=0;endArrow=oval;endFill=0;exitPerimeter=0;entryPerimeter=0;" edge="1" parent="1" source="OVhtjdc6IgPd9JC5Db8p-3" target="OVhtjdc6IgPd9JC5Db8p-142">
          <mxGeometry relative="1" as="geometry">
            <mxPoint x="400" y="146" as="sourcePoint" />
            <mxPoint x="401" y="372" as="targetPoint" />
          </mxGeometry>
        </mxCell>
        <mxCell id="OVhtjdc6IgPd9JC5Db8p-142" value="" style="shape=waypoint;sketch=0;size=6;pointerEvents=1;points=[];fillColor=none;resizable=0;rotatable=0;perimeter=centerPerimeter;snapToPoint=1;" vertex="1" parent="1">
          <mxGeometry x="369" y="230" width="20" height="20" as="geometry" />
        </mxCell>
        <mxCell id="OVhtjdc6IgPd9JC5Db8p-144" value="" style="shape=waypoint;sketch=0;size=6;pointerEvents=1;points=[];fillColor=none;resizable=0;rotatable=0;perimeter=centerPerimeter;snapToPoint=1;" vertex="1" parent="1">
          <mxGeometry x="570" y="230" width="20" height="20" as="geometry" />
        </mxCell>
        <mxCell id="OVhtjdc6IgPd9JC5Db8p-147" value="" style="edgeStyle=orthogonalEdgeStyle;rounded=0;orthogonalLoop=1;jettySize=auto;html=1;endArrow=oval;endFill=1;startArrow=oval;startFill=1;exitX=0.85;exitY=0.5;exitDx=0;exitDy=0;exitPerimeter=0;" edge="1" parent="1" source="OVhtjdc6IgPd9JC5Db8p-116" target="OVhtjdc6IgPd9JC5Db8p-146">
          <mxGeometry relative="1" as="geometry">
            <mxPoint x="761.9047619047619" y="250" as="targetPoint" />
            <mxPoint x="70" y="298" as="sourcePoint" />
            <Array as="points">
              <mxPoint x="130" y="298" />
            </Array>
          </mxGeometry>
        </mxCell>
        <mxCell id="OVhtjdc6IgPd9JC5Db8p-146" value="" style="shape=waypoint;sketch=0;size=6;pointerEvents=1;points=[];fillColor=none;resizable=0;rotatable=0;perimeter=centerPerimeter;snapToPoint=1;" vertex="1" parent="1">
          <mxGeometry x="130" y="241" width="20" height="20" as="geometry" />
        </mxCell>
        <mxCell id="OVhtjdc6IgPd9JC5Db8p-149" value="" style="edgeStyle=orthogonalEdgeStyle;rounded=0;orthogonalLoop=1;jettySize=auto;html=1;endArrow=oval;endFill=1;startArrow=oval;startFill=1;exitDx=0;exitDy=0;exitPerimeter=0;" edge="1" parent="1" source="OVhtjdc6IgPd9JC5Db8p-146" target="OVhtjdc6IgPd9JC5Db8p-148">
          <mxGeometry relative="1" as="geometry">
            <mxPoint x="761.9047619047619" y="250" as="targetPoint" />
            <mxPoint x="140" y="251" as="sourcePoint" />
            <Array as="points">
              <mxPoint x="130" y="250" />
            </Array>
          </mxGeometry>
        </mxCell>
        <mxCell id="OVhtjdc6IgPd9JC5Db8p-148" value="" style="shape=waypoint;sketch=0;size=6;pointerEvents=1;points=[];fillColor=none;resizable=0;rotatable=0;perimeter=centerPerimeter;snapToPoint=1;" vertex="1" parent="1">
          <mxGeometry x="350" y="241" width="20" height="20" as="geometry" />
        </mxCell>
        <mxCell id="OVhtjdc6IgPd9JC5Db8p-151" value="" style="edgeStyle=orthogonalEdgeStyle;rounded=0;orthogonalLoop=1;jettySize=auto;html=1;endArrow=oval;endFill=1;startArrow=oval;startFill=1;exitDx=0;exitDy=0;exitPerimeter=0;" edge="1" parent="1" source="OVhtjdc6IgPd9JC5Db8p-148" target="OVhtjdc6IgPd9JC5Db8p-150">
          <mxGeometry relative="1" as="geometry">
            <mxPoint x="761.9047619047619" y="250" as="targetPoint" />
            <mxPoint x="360" y="251" as="sourcePoint" />
            <Array as="points" />
          </mxGeometry>
        </mxCell>
        <mxCell id="OVhtjdc6IgPd9JC5Db8p-153" value="WE" style="text;html=1;align=center;verticalAlign=middle;resizable=0;points=[];autosize=1;strokeColor=none;fillColor=none;" vertex="1" parent="1">
          <mxGeometry x="594" y="117" width="40" height="30" as="geometry" />
        </mxCell>
        <mxCell id="OVhtjdc6IgPd9JC5Db8p-154" value="WE" style="text;html=1;align=center;verticalAlign=middle;resizable=0;points=[];autosize=1;strokeColor=none;fillColor=none;" vertex="1" parent="1">
          <mxGeometry x="594" y="343" width="40" height="30" as="geometry" />
        </mxCell>
        <mxCell id="OVhtjdc6IgPd9JC5Db8p-150" value="" style="shape=waypoint;sketch=0;size=6;pointerEvents=1;points=[];fillColor=none;resizable=0;rotatable=0;perimeter=centerPerimeter;snapToPoint=1;" vertex="1" parent="1">
          <mxGeometry x="550" y="241" width="20" height="20" as="geometry" />
        </mxCell>
      </root>
    </mxGraphModel>
  </diagram>
</mxfile>
